<svg xmlns="http://www.w3.org/2000/svg" width="38" height="33" viewBox="0 0 38 33">
  <g id="addTransaction" transform="translate(0 3.89)">
    <g id="Group_7" data-name="Group 7" transform="translate(0 -3.687)">
      <rect id="Rectangle_23" data-name="Rectangle 23" width="38" height="33" rx="10" transform="translate(0 -0.203)" fill="#43cf5f"/>
      <path id="cart-plus" d="M11.937,8.511l.027-.551a7.26,7.26,0,0,0-.2-1.653h6.518l-.613,2.2ZM9.245,19.532a1.653,1.653,0,1,0,1.631,1.653A1.643,1.643,0,0,0,9.245,19.532ZM21.541,3,17.808,16.226H6.466l-.495-1.194a7.075,7.075,0,0,1-1.077.091A6.969,6.969,0,0,1,3.6,15L5.02,18.43h14.4L23.2,5.2h2.1L26.1,3ZM14.683,19.532a1.653,1.653,0,1,0,1.631,1.653A1.642,1.642,0,0,0,14.683,19.532ZM9.789,7.96a4.93,4.93,0,0,1-4.894,4.96A4.96,4.96,0,0,1,4.894,3,4.93,4.93,0,0,1,9.789,7.96ZM7.614,7.409H5.438V5.2H4.351v2.2H2.175v1.1H4.351v2.2H5.438v-2.2H7.614Z" transform="translate(6.202 3.807)" fill="#fff"/>
    </g>
  </g>
</svg>
